# xmcd
#
# Track frame offsets:
#	183
#	16053
#	28633
#	40510
#	53185
#	65193
#	91283
#	103540
#	117788
#	139513
#	154838
#	170153
#	182460
#	192555
#	209683
#	221905
#
# Disc length: 3142
#
# Revision: 2
# Processed by: cddbd v1.5.1PL0 Copyright (c) Steve Scherf et al.
# Submitted via: audiograbber 1.80.04
# Normalized: r1:DSETVAR1
#
DISCID=e40c4410
DTITLE=Various Artist - Deutsche Trucker Songs - Wir sind Männer der Strasse
DYEAR=1986
DGENRE=Country
TTITLE0=Jonny Hill - Und wieder zeigt dir einer enien Vogel
TTITLE1=Hank Stone - Truckstop Mama
TTITLE2=Western Union - Ausgerechnet mir
TTITLE3=Ralf Paulsen - Ich fahr' 'nen Supertruck
TTITLE4=Tom Astor - 14 Tage auf dem Brenner
TTITLE5=Western Union - Transit Cowboy
TTITLE6=Tom Astor - Irrer Wahnsinns Superzahn
TTITLE7=Western Union - Frei wie ein Adler
TTITLE8=Jonny Hill - Ruf' Teddybär eins-vier
TTITLE9=Hank Stone - Und in Hamburg sitzt Gaby
TTITLE10=Mike Glenn - Diesel Blues
TTITLE11=Ralf Paulsen - Verdammte Radarfalle
TTITLE12=Ralf Paulsen - Ich bin ein Mann der Strasse
TTITLE13=Hank Stone - Ich hab' noch Strassenstaub an meinen Schuhen
TTITLE14=Tom Astor - Radwechsel
TTITLE15=Uli Totzki and Tom Astor - Gebet eines Truckers
EXTD=(c) 1986 MCS Limited Switzerland
EXTT0=
EXTT1=
EXTT2=
EXTT3=
EXTT4=
EXTT5=
EXTT6=
EXTT7=
EXTT8=
EXTT9=
EXTT10=
EXTT11=
EXTT12=
EXTT13=
EXTT14=
EXTT15=
PLAYORDER=
